<svg xmlns="http://www.w3.org/2000/svg" width="62.389" height="58.112" viewBox="0 0 62.389 58.112">
  <g id="Logo" transform="translate(-712.048 -270.878)">
    <path id="Path_184" data-name="Path 184" d="M0,55.456l20.417-5.671C26.666,48.28,31.76,44.706,31.76,38.442L31.962,0S25.4,1.36,10.776,3.279C5.55,4.226,0,8.1,0,14.055Z" transform="matrix(-0.035, 0.999, -0.999, -0.035, 774.437, 272.813)" fill="#3c719c"/>
    <path id="Path_185" data-name="Path 185" d="M0,52.825l20.518-3.347c6.249-1.505,11.343-5.078,11.343-11.343L31.73,0S25.5,1.054,10.877,2.973C5.651,3.919.1,7.8.1,13.748Z" transform="matrix(0.259, 0.966, -0.966, 0.259, 765.154, 274.171)" fill="#b2f0f0" opacity="0.5"/>
    <path id="Path_186" data-name="Path 186" d="M30.674,0,10.257,5.671C4.007,7.177,0,9.75,0,16.015l1.336,36.81S5.277,54.1,19.9,52.177c5.226-.947,10.776-4.824,10.776-10.776Z" transform="translate(759.483 277.49) rotate(63)" fill="#045789"/>
    <path id="Path_187" data-name="Path 187" d="M16.12,2.821C14.363-1.023,7.143-.83,2.97,2.739A8.4,8.4,0,0,0,.087,10.481l3.734-1.73a4.231,4.231,0,0,1,.412-4.942A8.5,8.5,0,0,1,7.143,1.97L3.423,21.739l3.859-.982,1.426-7.915C13.732,12.1,18.152,7.3,16.12,2.821ZM9.037,11.112l1.922-9.664a2.728,2.728,0,0,1,2.5,2.8C13.485,6.912,11.508,10.481,9.037,11.112Z" transform="translate(735.394 294.221) rotate(5)" fill="#fff"/>
  </g>
</svg>
