<svg xmlns="http://www.w3.org/2000/svg" width="207.99" height="98.466" viewBox="0 0 207.99 98.466">
  <g id="Logo_with_text" data-name="Logo with text" transform="translate(-1165.311 216.112)">
    <g id="Group_216" data-name="Group 216" transform="translate(525.952 -486.989)">
      <path id="Path_184" data-name="Path 184" d="M0,55.456l20.417-5.671C26.666,48.28,31.76,44.706,31.76,38.442L31.962,0S25.4,1.36,10.776,3.279C5.55,4.226,0,8.1,0,14.055Z" transform="matrix(-0.035, 0.999, -0.999, -0.035, 774.437, 272.813)" fill="#3c719c"/>
      <path id="Path_185" data-name="Path 185" d="M0,52.825l20.518-3.347c6.249-1.505,11.343-5.078,11.343-11.343L31.73,0S25.5,1.054,10.877,2.973C5.651,3.919.1,7.8.1,13.748Z" transform="matrix(0.259, 0.966, -0.966, 0.259, 765.154, 274.171)" fill="#b2f0f0" opacity="0.5"/>
      <path id="Path_186" data-name="Path 186" d="M30.674,0,10.257,5.671C4.007,7.177,0,9.75,0,16.015l1.336,36.81S5.277,54.1,19.9,52.177c5.226-.947,10.776-4.824,10.776-10.776Z" transform="translate(759.483 277.49) rotate(63)" fill="#045789"/>
      <path id="Path_187" data-name="Path 187" d="M16.12,2.821C14.363-1.023,7.143-.83,2.97,2.739A8.4,8.4,0,0,0,.087,10.481l3.734-1.73a4.231,4.231,0,0,1,.412-4.942A8.5,8.5,0,0,1,7.143,1.97L3.423,21.739l3.859-.982,1.426-7.915C13.732,12.1,18.152,7.3,16.12,2.821ZM9.037,11.112l1.922-9.664a2.728,2.728,0,0,1,2.5,2.8C13.485,6.912,11.508,10.481,9.037,11.112Z" transform="translate(735.394 294.221) rotate(5)" fill="#fff"/>
    </g>
    <path id="Path_14638" data-name="Path 14638" d="M-92.517-14.663v9.84q0,5.06-5.6,5.06-5.575,0-5.575-5.06v-9.84h4.254v9.969a4.521,4.521,0,0,0,.553,2.643,2.471,2.471,0,0,0,2.046.709q2.89,0,2.89-3.48v-9.84Zm6.563,0V-1.472h6.026V0h-10.28V-14.663Zm17.22,0v1.472h-3.6V0h-4.512V-13.191h-3.62v-1.472Zm5.371,0V0h-4.254V-14.663ZM-60.817,0V-14.663h6.327q5.382,0,5.382,4.308Q-49.108-6-55.091-6h-1.472V0Zm4.254-7.358h.956q2.32,0,2.32-3.072,0-2.879-2.32-2.879h-.956Zm15.544-7.3L-36.937,0h-4.275l-.87-3.18H-46.5L-47.432,0H-49.1l4.34-14.663Zm-5.06,10.012h3.6l-1.729-6.5Zm16.027-3.266h6.037V0h-1.354l-.462-1.01A6.374,6.374,0,0,1-29.579.247,6.535,6.535,0,0,1-34.633-1.7a7.8,7.8,0,0,1-1.8-5.495,8.057,8.057,0,0,1,1.907-5.581,6.376,6.376,0,0,1,4.99-2.132q4.061,0,4.941,4.146l-2,.913v-.354L-26.625-11q-.2-2.589-2.4-2.589a2.187,2.187,0,0,0-2.2,1.375,14.843,14.843,0,0,0-.591,5.124,15.582,15.582,0,0,0,.478,4.759,1.8,1.8,0,0,0,1.821,1.257q1.579,0,1.579-1.762V-6.445h-2.116Zm17.628-6.746v1.472h-5.253v4.437h4.415v1.472h-4.415v5.812h6.145V0h-10.4V-14.663ZM3.325-8.744,5.752-4.812A12.464,12.464,0,0,0,7.31-9.442l.054-.333h1.16A11.021,11.021,0,0,1,6.451-3.663L8.792.043H4.453l-.6-.967A5.315,5.315,0,0,1,.489.354,4.916,4.916,0,0,1-2.949-.94,4.087,4.087,0,0,1-4.367-4.071q0-2.5,3.685-4.189a5.9,5.9,0,0,1-1.246-3.072A3.224,3.224,0,0,1-.779-13.879a4.293,4.293,0,0,1,2.922-1q3.233,0,3.233,2.868A3.566,3.566,0,0,1,3.325-8.744ZM-.038-7.2A1.862,1.862,0,0,0-1.144-5.479a4.882,4.882,0,0,0,1.026,2.8q1.026,1.45,1.982,1.45a1.8,1.8,0,0,0,1.321-.784Zm2.75-2.546a2.258,2.258,0,0,0,1.311-2.052q0-1.912-1.633-1.912-1.1,0-1.1,1.139a2.31,2.31,0,0,0,.387,1.192ZM16.957,0V-14.663h6.327q5.382,0,5.382,4.308Q28.666-6,22.682-6H21.21V0ZM21.21-7.358h.956q2.32,0,2.32-3.072,0-2.879-2.32-2.879H21.21Zm15.544-7.3L40.836,0H36.561l-.87-3.18H31.276L30.341,0H28.676l4.34-14.663ZM31.695-4.651h3.6l-1.729-6.5ZM41.986,0V-14.663h6.306a6.7,6.7,0,0,1,3.932,1.037,3.233,3.233,0,0,1,1.472,2.777q0,2.664-3.158,3.47a4.29,4.29,0,0,1,2.1,1.321,6.557,6.557,0,0,1,.65,2.793A6.7,6.7,0,0,0,54.114,0H49.495a6.441,6.441,0,0,1-.44-2.546l-.021-.87-.021-1.1q0-2.535-2.041-2.535h-.73V0ZM46.24-8.261H47.1q2.417,0,2.417-2.524T47.1-13.31H46.24Zm19.938-6.4v1.472h-3.6V0H58.067V-13.191h-3.62v-1.472Zm11.827,0V0H74.75L68.626-9.281V0H67.2V-14.663h2.7L76.576-4.641V-14.663Zm11.945,0v1.472H84.7v4.437h4.415v1.472H84.7v5.812h6.145V0h-10.4V-14.663ZM92.173,0V-14.663h6.306a6.7,6.7,0,0,1,3.932,1.037,3.233,3.233,0,0,1,1.472,2.777q0,2.664-3.158,3.47a4.29,4.29,0,0,1,2.1,1.321,6.557,6.557,0,0,1,.65,2.793A6.7,6.7,0,0,0,104.3,0H99.682a6.441,6.441,0,0,1-.44-2.546l-.021-.87-.021-1.1q0-2.535-2.041-2.535h-.73V0Zm4.254-8.261h.859q2.417,0,2.417-2.524T97.287-13.31h-.859Z" transform="translate(1269 -118)" fill="#045789"/>
  </g>
</svg>
